<?xml version="1.0" standalone="no"?>
<!DOCTYPE svg PUBLIC "-//W3C//DTD SVG 20010904//EN"
 "http://www.w3.org/TR/2001/REC-SVG-20010904/DTD/svg10.dtd">
<svg version="1.0" xmlns="http://www.w3.org/2000/svg"
 width="50.000000pt" height="50.000000pt" viewBox="0 0 50.000000 50.000000"
 preserveAspectRatio="xMidYMid meet">

<g transform="translate(0.000000,50.000000) scale(0.100000,-0.100000)"
fill="#000000" stroke="none">
<path d="M20 480 c-19 -19 -20 -33 -20 -230 0 -197 1 -211 20 -230 19 -19 33
-20 230 -20 197 0 211 1 230 20 19 19 20 33 20 230 0 197 -1 211 -20 230 -19
19 -33 20 -230 20 -197 0 -211 -1 -230 -20z m209 -86 c106 -53 184 -160 198
-273 l6 -51 -35 0 c-34 0 -35 1 -41 45 -17 121 -103 210 -232 240 -47 11 -50
14 -53 45 l-3 33 52 -6 c29 -4 78 -19 108 -33z m-54 -101 c70 -35 130 -115
137 -183 3 -33 1 -35 -28 -38 -28 -3 -32 0 -43 40 -23 76 -67 117 -143 133
-23 4 -28 11 -28 34 0 15 3 31 7 35 9 9 59 -2 98 -21z m-13 -130 c34 -31 11
-93 -35 -93 -27 0 -57 28 -57 53 0 48 56 73 92 40z"/>
</g>
</svg>
